<svg xmlns="http://www.w3.org/2000/svg" viewBox="0 0 800 420" font-family="Segoe UI, sans-serif">
<rect width="800" height="420" fill="#ffffff" rx="8"/>
<text x="64" y="30" fill="#1f2328" font-size="17" font-weight="700">★ Star History — timoncool/telegram-api-mcp</text>
<text x="776" y="30" fill="#1f2328" font-size="14" text-anchor="end">31 stars · updated 2026-10-07</text>
<line x1="64" y1="364.0" x2="776" y2="364.0" stroke="#d1d9e0" stroke-width="1"/><text x="54" y="368.0" fill="#1f2328" font-size="13" text-anchor="end">0</text><line x1="64" y1="282.5" x2="776" y2="282.5" stroke="#d1d9e0" stroke-width="1"/><text x="54" y="286.5" fill="#1f2328" font-size="13" text-anchor="end">8</text><line x1="64" y1="200.9" x2="776" y2="200.9" stroke="#d1d9e0" stroke-width="1"/><text x="54" y="204.9" fill="#1f2328" font-size="13" text-anchor="end">16</text><line x1="64" y1="129.5" x2="776" y2="129.5" stroke="#d1d9e0" stroke-width="1"/><text x="54" y="133.5" fill="#1f2328" font-size="13" text-anchor="end">23</text><line x1="64" y1="48.0" x2="776" y2="48.0" stroke="#d1d9e0" stroke-width="1"/><text x="54" y="52.0" fill="#1f2328" font-size="13" text-anchor="end">31</text>
<path d="M64.0,364.0 L64.0,353.8 L67.2,343.6 L68.4,333.4 L68.4,323.2 L68.5,313.0 L68.6,302.8 L71.5,292.6 L72.2,282.5 L76.0,272.3 L95.3,262.1 L105.9,251.9 L123.9,241.7 L130.2,231.5 L191.4,221.3 L192.5,211.1 L195.2,200.9 L200.2,190.7 L203.1,180.5 L210.9,170.3 L221.8,160.1 L245.3,149.9 L307.7,139.7 L326.5,129.5 L431.1,119.4 L448.7,109.2 L499.9,99.0 L530.8,88.8 L582.5,78.6 L745.1,68.4 L749.1,58.2 L776.0,48.0 L776.0,48.0" fill="none" stroke="#0969da" stroke-width="2.5" stroke-linejoin="round"/>
<circle cx="776.0" cy="48.0" r="4" fill="#0969da"/>
<text x="64.0" y="388" fill="#1f2328" font-size="13" text-anchor="middle">Apr 05, 2026</text><text x="301.3" y="388" fill="#1f2328" font-size="13" text-anchor="middle">Jun 06, 2026</text><text x="538.7" y="388" fill="#1f2328" font-size="13" text-anchor="middle">Aug 06, 2026</text><text x="776.0" y="388" fill="#1f2328" font-size="13" text-anchor="middle">Oct 07, 2026</text>
</svg>