<svg xmlns="http://www.w3.org/2000/svg" viewBox="0 0 800 420" font-family="Segoe UI, sans-serif">
<rect width="800" height="420" fill="#ffffff" rx="8"/>
<text x="64" y="30" fill="#1f2328" font-size="17" font-weight="700">★ Star History — timoncool/telegram-api-mcp</text>
<text x="776" y="30" fill="#1f2328" font-size="14" text-anchor="end">27 stars · updated 2026-08-17</text>
<line x1="64" y1="364.0" x2="776" y2="364.0" stroke="#d1d9e0" stroke-width="1"/><text x="54" y="368.0" fill="#1f2328" font-size="13" text-anchor="end">0</text><line x1="64" y1="282.1" x2="776" y2="282.1" stroke="#d1d9e0" stroke-width="1"/><text x="54" y="286.1" fill="#1f2328" font-size="13" text-anchor="end">7</text><line x1="64" y1="200.1" x2="776" y2="200.1" stroke="#d1d9e0" stroke-width="1"/><text x="54" y="204.1" fill="#1f2328" font-size="13" text-anchor="end">14</text><line x1="64" y1="129.9" x2="776" y2="129.9" stroke="#d1d9e0" stroke-width="1"/><text x="54" y="133.9" fill="#1f2328" font-size="13" text-anchor="end">20</text><line x1="64" y1="48.0" x2="776" y2="48.0" stroke="#d1d9e0" stroke-width="1"/><text x="54" y="52.0" fill="#1f2328" font-size="13" text-anchor="end">27</text>
<path d="M64.0,364.0 L64.0,352.3 L68.5,340.6 L70.0,328.9 L70.2,317.2 L70.3,305.5 L70.4,293.8 L74.4,282.1 L75.3,270.4 L80.6,258.7 L107.3,247.0 L122.1,235.3 L146.9,223.6 L155.7,211.9 L240.4,200.1 L242.0,188.4 L245.7,176.7 L252.6,165.0 L256.7,153.3 L267.5,141.6 L282.5,129.9 L315.1,118.2 L401.6,106.5 L427.6,94.8 L572.5,83.1 L596.8,71.4 L667.9,59.7 L710.6,48.0 L776.0,48.0" fill="none" stroke="#0969da" stroke-width="2.5" stroke-linejoin="round"/>
<circle cx="776.0" cy="48.0" r="4" fill="#0969da"/>
<text x="64.0" y="388" fill="#1f2328" font-size="13" text-anchor="middle">Apr 05, 2026</text><text x="301.3" y="388" fill="#1f2328" font-size="13" text-anchor="middle">May 19, 2026</text><text x="538.7" y="388" fill="#1f2328" font-size="13" text-anchor="middle">Jul 03, 2026</text><text x="776.0" y="388" fill="#1f2328" font-size="13" text-anchor="middle">Aug 17, 2026</text>
</svg>