<svg xmlns="http://www.w3.org/2000/svg" viewBox="0 0 800 420" font-family="Segoe UI, sans-serif">
<rect width="800" height="420" fill="#0d1117" rx="8"/>
<text x="64" y="30" fill="#e6edf3" font-size="17" font-weight="700">★ Star History — timoncool/telegram-api-mcp</text>
<text x="776" y="30" fill="#e6edf3" font-size="14" text-anchor="end">28 stars · updated 2026-09-26</text>
<line x1="64" y1="364.0" x2="776" y2="364.0" stroke="#30363d" stroke-width="1"/><text x="54" y="368.0" fill="#e6edf3" font-size="13" text-anchor="end">0</text><line x1="64" y1="285.0" x2="776" y2="285.0" stroke="#30363d" stroke-width="1"/><text x="54" y="289.0" fill="#e6edf3" font-size="13" text-anchor="end">7</text><line x1="64" y1="206.0" x2="776" y2="206.0" stroke="#30363d" stroke-width="1"/><text x="54" y="210.0" fill="#e6edf3" font-size="13" text-anchor="end">14</text><line x1="64" y1="127.0" x2="776" y2="127.0" stroke="#30363d" stroke-width="1"/><text x="54" y="131.0" fill="#e6edf3" font-size="13" text-anchor="end">21</text><line x1="64" y1="48.0" x2="776" y2="48.0" stroke="#30363d" stroke-width="1"/><text x="54" y="52.0" fill="#e6edf3" font-size="13" text-anchor="end">28</text>
<path d="M64.0,364.0 L64.0,352.7 L67.5,341.4 L68.7,330.1 L68.7,318.9 L68.8,307.6 L68.9,296.3 L72.0,285.0 L72.7,273.7 L76.7,262.4 L97.3,251.1 L108.7,239.9 L127.8,228.6 L134.6,217.3 L199.7,206.0 L200.9,194.7 L203.8,183.4 L209.1,172.1 L212.2,160.9 L220.5,149.6 L232.1,138.3 L257.2,127.0 L323.7,115.7 L343.7,104.4 L455.1,93.1 L473.8,81.9 L528.5,70.6 L561.3,59.3 L616.5,48.0 L776.0,48.0" fill="none" stroke="#4f8ff7" stroke-width="2.5" stroke-linejoin="round"/>
<circle cx="776.0" cy="48.0" r="4" fill="#4f8ff7"/>
<text x="64.0" y="388" fill="#e6edf3" font-size="13" text-anchor="middle">Apr 05, 2026</text><text x="301.3" y="388" fill="#e6edf3" font-size="13" text-anchor="middle">Jun 02, 2026</text><text x="538.7" y="388" fill="#e6edf3" font-size="13" text-anchor="middle">Jul 30, 2026</text><text x="776.0" y="388" fill="#e6edf3" font-size="13" text-anchor="middle">Sep 26, 2026</text>
</svg>