<svg xmlns="http://www.w3.org/2000/svg" viewBox="0 0 800 420" font-family="Segoe UI, sans-serif">
<rect width="800" height="420" fill="#0d1117" rx="8"/>
<text x="64" y="30" fill="#e6edf3" font-size="17" font-weight="700">★ Star History — timoncool/telegram-api-mcp</text>
<text x="776" y="30" fill="#e6edf3" font-size="14" text-anchor="end">32 stars · updated 2026-10-09</text>
<line x1="64" y1="364.0" x2="776" y2="364.0" stroke="#30363d" stroke-width="1"/><text x="54" y="368.0" fill="#e6edf3" font-size="13" text-anchor="end">0</text><line x1="64" y1="285.0" x2="776" y2="285.0" stroke="#30363d" stroke-width="1"/><text x="54" y="289.0" fill="#e6edf3" font-size="13" text-anchor="end">8</text><line x1="64" y1="206.0" x2="776" y2="206.0" stroke="#30363d" stroke-width="1"/><text x="54" y="210.0" fill="#e6edf3" font-size="13" text-anchor="end">16</text><line x1="64" y1="127.0" x2="776" y2="127.0" stroke="#30363d" stroke-width="1"/><text x="54" y="131.0" fill="#e6edf3" font-size="13" text-anchor="end">24</text><line x1="64" y1="48.0" x2="776" y2="48.0" stroke="#30363d" stroke-width="1"/><text x="54" y="52.0" fill="#e6edf3" font-size="13" text-anchor="end">32</text>
<path d="M64.0,364.0 L64.0,354.1 L67.2,344.2 L68.3,334.4 L68.4,324.5 L68.5,314.6 L68.6,304.8 L71.5,294.9 L72.1,285.0 L75.9,275.1 L95.0,265.2 L105.6,255.4 L123.3,245.5 L129.6,235.6 L190.2,225.8 L191.3,215.9 L194.0,206.0 L198.9,196.1 L201.9,186.2 L209.6,176.4 L220.3,166.5 L243.7,156.6 L305.5,146.8 L324.1,136.9 L427.8,127.0 L445.2,117.1 L496.0,107.2 L526.6,97.4 L577.9,87.5 L739.0,77.6 L743.0,67.8 L769.6,57.9 L773.0,48.0 L776.0,48.0" fill="none" stroke="#4f8ff7" stroke-width="2.5" stroke-linejoin="round"/>
<circle cx="776.0" cy="48.0" r="4" fill="#4f8ff7"/>
<text x="64.0" y="388" fill="#e6edf3" font-size="13" text-anchor="middle">Apr 05, 2026</text><text x="301.3" y="388" fill="#e6edf3" font-size="13" text-anchor="middle">Jun 06, 2026</text><text x="538.7" y="388" fill="#e6edf3" font-size="13" text-anchor="middle">Aug 08, 2026</text><text x="776.0" y="388" fill="#e6edf3" font-size="13" text-anchor="middle">Oct 09, 2026</text>
</svg>