<svg xmlns="http://www.w3.org/2000/svg" viewBox="0 0 800 420" font-family="Segoe UI, sans-serif">
<rect width="800" height="420" fill="#ffffff" rx="8"/>
<text x="64" y="30" fill="#1f2328" font-size="17" font-weight="700">★ Star History — timoncool/telegram-api-mcp</text>
<text x="776" y="30" fill="#1f2328" font-size="14" text-anchor="end">23 stars · updated 2026-07-07</text>
<line x1="64" y1="364.0" x2="776" y2="364.0" stroke="#d1d9e0" stroke-width="1"/><text x="54" y="368.0" fill="#1f2328" font-size="13" text-anchor="end">0</text><line x1="64" y1="281.6" x2="776" y2="281.6" stroke="#d1d9e0" stroke-width="1"/><text x="54" y="285.6" fill="#1f2328" font-size="13" text-anchor="end">6</text><line x1="64" y1="199.1" x2="776" y2="199.1" stroke="#d1d9e0" stroke-width="1"/><text x="54" y="203.1" fill="#1f2328" font-size="13" text-anchor="end">12</text><line x1="64" y1="130.4" x2="776" y2="130.4" stroke="#d1d9e0" stroke-width="1"/><text x="54" y="134.4" fill="#1f2328" font-size="13" text-anchor="end">17</text><line x1="64" y1="48.0" x2="776" y2="48.0" stroke="#d1d9e0" stroke-width="1"/><text x="54" y="52.0" fill="#1f2328" font-size="13" text-anchor="end">23</text>
<path d="M64.0,364.0 L64.0,350.3 L70.5,336.5 L72.7,322.8 L72.8,309.0 L73.0,295.3 L73.2,281.6 L79.0,267.8 L80.3,254.1 L87.8,240.3 L126.2,226.6 L147.4,212.9 L183.0,199.1 L195.7,185.4 L317.3,171.7 L319.5,157.9 L324.8,144.2 L334.8,130.4 L340.6,116.7 L356.2,103.0 L377.7,89.2 L424.5,75.5 L548.6,61.7 L586.0,48.0 L776.0,48.0" fill="none" stroke="#0969da" stroke-width="2.5" stroke-linejoin="round"/>
<circle cx="776.0" cy="48.0" r="4" fill="#0969da"/>
<text x="64.0" y="388" fill="#1f2328" font-size="13" text-anchor="middle">Apr 05, 2026</text><text x="301.3" y="388" fill="#1f2328" font-size="13" text-anchor="middle">May 06, 2026</text><text x="538.7" y="388" fill="#1f2328" font-size="13" text-anchor="middle">Jun 06, 2026</text><text x="776.0" y="388" fill="#1f2328" font-size="13" text-anchor="middle">Jul 07, 2026</text>
</svg>